<?xml version="1.0" encoding="utf-8"?>
<!-- Generator: Adobe Illustrator 21.1.0, SVG Export Plug-In . SVG Version: 6.00 Build 0)  -->
<svg version="1.1" xmlns="http://www.w3.org/2000/svg" xmlns:xlink="http://www.w3.org/1999/xlink" x="0px" y="0px"
	 viewBox="0 0 500 500" style="enable-background:new 0 0 500 500;" xml:space="preserve">
<style type="text/css">
	.st0{clip-path:url(#SVGID_2_);}
	.st1{fill:#FFFFFF;}
	.st2{clip-path:url(#SVGID_4_);}
	.st3{clip-path:url(#SVGID_6_);}
	.st4{clip-path:url(#SVGID_8_);}
</style>
<g id="logo-lockup">
	<path d="M377.94,192.12c-0.01-0.05-0.02-0.09-0.02-0.09c0,0.03,0.01,0.03,0.02,0.07C377.94,192.11,377.94,192.11,377.94,192.12z"
			/>
	<path d="M393.82,231.28c-0.17-0.02-0.33,0-0.26,0.02C393.64,231.28,393.73,231.28,393.82,231.28z"/>
	<path d="M248.39,232.34c-0.01-0.02-0.02-0.05-0.04-0.08c0,0.02,0.01,0.05,0.01,0.07C248.41,232.46,248.44,232.47,248.39,232.34z"
		/>
	<path d="M250,0C111.93,0,0,111.93,0,250s111.93,250,250,250s250-111.93,250-250S388.07,0,250,0z M263.01,139.66
		c0.79-0.9,1.61-1.95,2.44-3.03c1.64-2.18,3.37-4.47,5.06-6.83l5.25-7.13c1.81-2.4,3.63-4.81,5.73-7.24
		c2.8-3.26,7.7-3.63,10.96-0.83c2.58,2.22,3.35,5.76,2.16,8.75l-0.09,0.22c-1.03,2.6-2.18,5.32-3.35,8.05
		c-1.18,2.73-2.42,5.47-3.72,8.22c-1.34,2.74-2.68,5.51-4.26,8.31c-0.79,1.41-1.61,2.82-2.57,4.31c-0.25,0.37-0.48,0.76-0.74,1.12
		c-0.26,0.37-0.62,0.76-0.97,1.1c-0.65,0.63-1.71,1.42-2.91,1.81c-4.26,1.39-8.83-0.8-10.45-4.91L262,142.5
		C261.53,141.29,262.18,140.59,263.01,139.66z M418.93,268.72l-0.02,0.06c-0.71,3.16-1.3,4.79-1.86,6.19
		c-0.55,1.27-1.06,1.97-1.54,2.18c-0.24,0.12-0.47,0.07-0.71,0.06l-0.7-0.04l-1.44-0.05c-1.93-0.06-3.83-0.15-5.79-0.18
		c-3.88-0.1-7.8-0.14-11.72-0.18c-7.85-0.04-15.72-0.03-23.6,0.07c-15.76,0.1-31.55,0.44-47.34,0.84
		c-15.79,0.37-31.58,0.95-47.37,1.51c-7.89,0.31-15.79,0.64-23.68,1.02c-7.89,0.34-15.79,0.72-23.67,1.14l-20.42,1.14l0.2,14.38
		c0.29,15.62,0.69,31.23,1.19,46.82c0.53,15.58,1.13,31.15,2.16,46.63c0.24,3.87,0.56,7.72,0.83,11.58
		c0.32,3.84,0.65,7.69,1.02,11.51c0.76,7.63,1.71,15.22,3,22.49l0.02,0.13c0.93,5.22-2.55,10.2-7.77,11.13
		c-5.22,0.93-10.2-2.55-11.13-7.77c-0.01-0.08-0.03-0.21-0.05-0.29c-1.2-8.18-1.89-16.16-2.51-24.11
		c-0.28-3.97-0.52-7.93-0.75-11.89c-0.18-3.95-0.4-7.9-0.55-11.84c-0.6-15.77-1-31.48-1.23-47.17
		c-0.23-15.69-0.31-31.37-0.38-47.04l-0.05-13.55l-10.89,0.71c-7.88,0.51-15.75,1.16-23.62,1.78l-11.8,0.98l-11.79,1.1
		c-15.72,1.44-31.39,3.27-46.99,5.48l-5.85,0.83l-5.83,0.94c-1.94,0.32-3.89,0.61-5.83,0.96l-5.8,1.08
		c-3.89,0.65-7.72,1.5-11.57,2.31c-1.94,0.38-3.84,0.86-5.74,1.34l-5.74,1.39l-0.06,0.02c-1.07,0.26-2.16-0.4-2.42-1.47
		c-0.24-0.99,0.3-1.99,1.23-2.34c7.48-2.87,15.1-5.4,22.79-7.6l5.78-1.62c1.93-0.52,3.87-0.99,5.81-1.49l5.82-1.47l5.84-1.35
		l5.84-1.35c1.95-0.43,3.91-0.81,5.86-1.21c3.91-0.8,7.82-1.61,11.75-2.32c7.84-1.51,15.7-2.85,23.57-4.18
		c15.74-2.55,31.54-4.68,47.35-6.59c4.08-0.49,8.16-0.96,12.25-1.42l-0.06-17.92c-0.05-12.41-0.02-24.83-0.04-37.23
		c-8.49,2.73-17.07,5.22-25.84,7.25c-1.37,0.32-2.72,0.72-4.17,0.69c-0.72,0-1.44-0.04-2.17-0.08c-1.81,3.84-3.66,7.66-5.55,11.47
		c-1.8,3.63-3.64,7.24-5.54,10.84c-1.9,3.61-3.84,7.17-6.01,10.82c-1.85,3.11-5.88,4.13-8.99,2.28c-3.08-1.83-4.11-5.79-2.34-8.89
		l0.03-0.06c1.87-3.26,3.7-6.76,5.47-10.27c1.78-3.51,3.51-7.06,5.2-10.63c0.6-1.27,1.18-2.55,1.77-3.83
		c-1.08-0.12-2.16-0.26-3.25-0.46c-2.91-0.52-5.89-1.35-8.61-2.72c-0.4-0.2-0.57-0.7-0.36-1.1c0.09-0.18,0.23-0.31,0.4-0.38
		l0.07-0.03c1.4-0.61,2.69-1.01,4-1.58c0.65-0.28,1.29-0.49,1.93-0.75c0.64-0.28,1.28-0.54,1.92-0.79
		c2.54-1.01,5.05-2.01,7.57-2.96c0.5-0.16,0.98-0.39,1.48-0.55c0.96-2.16,1.93-4.32,2.87-6.5c6.29-14.55,12.13-29.3,17.36-44.22
		c5.24-14.91,9.86-30,13.4-45.21c1.77-7.6,3.22-15.23,4.19-22.83c0.96-7.59,1.44-15.17,1.02-22.42l0-0.07
		c-0.05-0.81,0.03-1.6,0.2-2.35c0-1.32,0-2.63,0.01-3.93l0-0.25c0.02-3.4,2.79-6.14,6.18-6.12c2.7,0.01,4.99,1.77,5.8,4.2
		c0.11,0.33,0.21,0.67,0.32,1c2.2,1.36,3.72,3.73,3.88,6.5c0,0.03,0.01,0.11,0.01,0.15c0.14,3.55,0.1,7.05-0.07,10.5
		c0.28,1.89,0.53,3.78,0.71,5.66c0.2,1.98,0.41,3.96,0.56,5.94c0.15,1.97,0.25,3.95,0.37,5.92c0.25,3.95,0.42,7.88,0.59,11.83
		c0.64,15.75,0.59,31.45,0.56,47.13c-0.11,12.58-0.06,25.16,0.05,37.72c5.95-2.08,11.88-4.24,17.73-6.54
		c5.06-1.97,10.06-4.06,14.98-6.24c2.46-1.1,4.87-2.25,7.2-3.47c1.14-0.62,2.3-1.23,3.36-1.87c1.07-0.64,2.05-1.3,2.63-1.81
		c2.94-2.54,7.37-2.22,9.91,0.72c1.91,2.21,2.2,5.28,0.97,7.74c-0.01,0.05-0.03,0.09-0.04,0.14c-0.24,0.8-0.47,1.57-0.72,2.31
		c-0.51,1.49-1.04,2.92-1.57,4.35c-1.09,2.83-2.2,5.58-3.31,8.32c-2.23,5.46-4.45,10.83-6.43,16.14c-0.98,2.65-1.9,5.28-2.66,7.86
		c-0.78,2.56-1.38,5.11-1.67,7.31c-0.08,0.66-0.13,1.29-0.14,1.85c0.27-0.11,0.56-0.23,0.87-0.38c0.92-0.43,1.93-1,2.95-1.64
		c2.06-1.31,4.22-2.88,6.34-4.59c4.27-3.42,8.51-7.27,12.73-11.21l12.8-12.06c2.19-2.01,4.35-4.07,6.65-6.06
		c1.92-1.69,3.88-3.36,6.03-5c1.38-1.92,3.75-3.05,6.26-2.72c3.63,0.48,6.2,3.79,5.72,7.42c-0.13,1.05-0.29,1.85-0.44,2.66
		l-0.48,2.31l-1,4.42l-1.99,8.62c-0.56,2.49-1.1,4.96-1.59,7.41c2.52-2.78,5.05-5.62,7.58-8.46c3.96-4.43,7.93-8.87,12.14-13.28
		c2.12-2.21,4.26-4.39,6.74-6.6c0.63-0.55,1.28-1.11,2.01-1.68c0.73-0.57,1.51-1.15,2.61-1.8c0.58-0.32,1.19-0.67,2.28-1.04
		c0.53-0.17,1.24-0.37,2.27-0.43l0.39-0.01l0.47,0.01c0.31,0.02,0.63,0.05,1.03,0.13c0.19,0.04,0.37,0.08,0.56,0.13
		c0.2,0.06,0.41,0.12,0.62,0.2c0.4,0.14,0.82,0.34,1.23,0.58c0.81,0.47,1.53,1.12,2.05,1.78c0.27,0.34,0.45,0.62,0.65,0.96
		c0.18,0.32,0.3,0.57,0.43,0.87c0.44,1.09,0.54,1.86,0.61,2.5c0.1,1.21,0.01,1.96-0.08,2.63l-1.31,8.81
		c-0.41,2.89-0.78,5.77-1.11,8.63c-0.23,2-0.42,3.98-0.59,5.95c3.08-3.93,6.18-7.89,9.35-11.83c3.77-4.67,7.6-9.31,11.78-13.86
		c2.11-2.28,4.28-4.52,6.85-6.75c1.32-1.11,2.67-2.22,4.61-3.34c1.02-0.54,2.13-1.16,4.13-1.53c1.02-0.15,2.35-0.24,3.96,0.24
		c1.6,0.45,3.14,1.62,3.99,2.74c0.87,1.12,1.28,2.14,1.55,2.97c0.07,0.21,0.12,0.4,0.17,0.61l0.09,0.39l0.15,0.7
		c0.18,0.92,0.32,1.78,0.42,2.62c0.22,1.68,0.34,3.27,0.44,4.83c0.19,3.12,0.27,6.12,0.35,9.09c0.16,5.91,0.18,11.74,0.75,17.14
		c0.14,1.34,0.34,2.64,0.58,3.84c0.25,1.19,0.57,2.31,0.91,3.06c0.14,0.33,0.28,0.57,0.36,0.7c0.43-0.02,0.86-0.04,1.29-0.1
		c2.45-0.23,4.84-0.7,7.25-1.55l3.8-1.34c1.34-0.47,2.74-1,4.35-1.37c1.18-0.27,2.35,0.46,2.62,1.64c0.12,0.54,0.04,1.08-0.21,1.53
		l-0.02,0.03c-0.76,1.41-1.71,2.68-2.81,3.88c-1.09,1.21-2.37,2.31-3.79,3.26c-2.83,1.89-6.14,3.29-9.53,4.01
		c-0.85,0.2-1.7,0.32-2.55,0.45c-1.38,0.18-3.19,0.01-4.74-0.65c-1.58-0.64-2.83-1.67-3.71-2.66c-0.9-1.01-1.52-2-2.02-2.95
		c-0.99-1.9-1.53-3.63-2-5.31c-0.45-1.67-0.78-3.3-1.04-4.88c-0.53-3.18-0.85-6.26-1.09-9.3c-0.24-3.04-0.42-6.03-0.55-8.98
		c-0.15-2.94-0.29-5.86-0.53-8.64c-0.01-0.17-0.03-0.33-0.05-0.49c-1.52,1.44-3.05,3.05-4.55,4.71
		c-3.78,4.21-7.44,8.74-11.05,13.33c-3.62,4.6-7.17,9.29-10.79,14.01c-1.84,2.37-3.64,4.71-5.72,7.18l-0.41,0.47l-0.48,0.54
		c-0.22,0.23-0.4,0.44-0.67,0.69l-0.39,0.36l-0.47,0.4c-0.29,0.25-0.76,0.57-1.19,0.84c-0.28,0.16-0.57,0.32-0.87,0.46
		c-0.28,0.14-0.75,0.31-1.14,0.43c-0.85,0.26-2.03,0.45-3.35,0.28c-1.34-0.17-2.66-0.77-3.55-1.44c-0.43-0.32-0.88-0.72-1.13-1.01
		c-0.29-0.31-0.59-0.68-0.75-0.94c-0.42-0.61-0.65-1.07-0.88-1.55c-0.38-0.87-0.58-1.56-0.74-2.19c-0.3-1.24-0.42-2.21-0.51-3.16
		c-0.31-3.69-0.15-6.77,0.02-9.91c0.19-3.11,0.48-6.15,0.81-9.16c0.14-1.25,0.29-2.49,0.44-3.72c-3.59,3.81-7.15,7.78-10.72,11.77
		c-3.94,4.41-7.86,8.85-12.04,13.31c-1.06,1.12-2.13,2.23-3.29,3.37c-0.58,0.57-1.18,1.14-1.85,1.74c-0.34,0.3-0.69,0.61-1.09,0.93
		l-0.32,0.25l-0.43,0.32c-0.31,0.22-0.64,0.44-1.07,0.68c-0.41,0.23-0.91,0.48-1.58,0.72c-0.66,0.23-1.5,0.46-2.66,0.49
		c-1.14,0.04-2.63-0.26-3.86-0.95c-1.24-0.68-2.1-1.59-2.63-2.34c-1.06-1.54-1.28-2.55-1.51-3.39c-0.19-0.82-0.27-1.48-0.33-2.08
		c-0.1-1.19-0.08-2.16-0.05-3.08c0.04-0.92,0.11-1.78,0.2-2.62c0.36-3.33,0.91-6.36,1.5-9.38c0.12-0.6,0.25-1.19,0.38-1.79
		c-2.43,2.69-4.9,5.37-7.45,8.01c-4.22,4.35-8.6,8.64-13.51,12.7c-2.47,2.02-5.05,4.02-8,5.86c-1.48,0.92-3.05,1.82-4.82,2.64
		c-1.76,0.82-3.76,1.57-6.21,2.04c-1.25,0.22-2.59,0.37-4.14,0.3c-1.53-0.07-3.22-0.38-4.89-1.03c-1.69-0.66-3.21-1.65-4.5-2.86
		c-1.3-1.21-2.38-2.7-3.08-4.14c-0.72-1.45-1.14-2.86-1.42-4.18c-0.24-1.29-0.36-2.51-0.39-3.63c-0.04-2.25,0.22-4.19,0.54-6.02
		c0.67-3.64,1.74-6.79,2.88-9.83c1.17-3.02,2.45-5.89,3.81-8.67c2.62-5.37,5.52-10.44,8.5-15.38c-0.49,0.21-0.98,0.43-1.47,0.64
		c-5.14,2.24-10.3,4.32-15.46,6.38c-7.41,2.93-14.84,5.76-22.34,8.44c0.16,14.1,0.36,28.2,0.5,42.29l0.22,16.34
		c6.48-0.66,12.96-1.28,19.44-1.85c31.71-2.86,63.48-4.82,95.28-6.14c15.91-0.64,31.82-1.08,47.77-1.34
		c7.97-0.1,15.96-0.12,23.97-0.08c4.01,0.03,8.02,0.08,12.06,0.18c2.01,0.03,4.07,0.13,6.1,0.19l1.53,0.06l0.78,0.04
		c0.26,0.02,0.52,0,0.78,0.15c0.51,0.27,0.99,1.02,1.43,2.35c0.43,1.46,0.83,3.14,1.11,6.35
		C419.16,267.08,419.1,267.92,418.93,268.72z"/>
	<path d="M191.57,143.85c-2.33,7.26-4.84,14.44-7.48,21.56c-5.16,13.95-10.84,27.65-16.89,41.19c8.57-2.36,17.13-4.98,25.66-7.73
		c-0.09-14.21-0.3-28.4-0.85-42.59C191.87,152.14,191.72,148,191.57,143.85z"/>
</g>
<g id="logo-dash">
	<defs>
		<path id="SVGID_1_" d="M418.91,268.78c-0.71,3.16-1.3,4.79-1.86,6.19c-0.55,1.27-1.06,1.97-1.54,2.18
			c-0.24,0.12-0.47,0.07-0.71,0.06l-0.7-0.04l-1.44-0.05c-1.93-0.06-3.83-0.15-5.79-0.18c-3.88-0.1-7.8-0.14-11.72-0.18
			c-7.85-0.04-15.72-0.03-23.6,0.07c-15.76,0.1-31.55,0.44-47.34,0.84c-15.79,0.37-31.58,0.95-47.37,1.51
			c-7.89,0.31-15.79,0.64-23.68,1.02c-7.89,0.34-15.79,0.72-23.67,1.14l-23.66,1.32l-23.64,1.55c-7.88,0.51-15.75,1.16-23.62,1.78
			l-11.8,0.98l-11.79,1.1c-15.72,1.44-31.39,3.27-46.99,5.48l-5.85,0.83l-5.83,0.94c-1.94,0.32-3.89,0.61-5.83,0.96l-5.8,1.08
			c-3.89,0.65-7.72,1.5-11.57,2.31c-1.94,0.38-3.84,0.86-5.74,1.34l-5.74,1.39l-0.06,0.02c-1.07,0.26-2.16-0.4-2.42-1.47
			c-0.24-0.99,0.3-1.99,1.23-2.34c7.48-2.87,15.1-5.4,22.79-7.6l5.78-1.62c1.93-0.52,3.87-0.99,5.81-1.49l5.82-1.47l5.84-1.35
			l5.84-1.35c1.95-0.43,3.91-0.81,5.86-1.21c3.91-0.8,7.82-1.61,11.75-2.32c7.84-1.51,15.7-2.85,23.57-4.18
			c15.74-2.55,31.54-4.68,47.35-6.59c15.82-1.89,31.65-3.55,47.51-4.94c31.71-2.86,63.48-4.82,95.28-6.14
			c15.91-0.64,31.82-1.08,47.77-1.34c7.97-0.1,15.96-0.12,23.97-0.08c4.01,0.03,8.02,0.08,12.06,0.18c2.01,0.03,4.07,0.13,6.1,0.19
			l1.53,0.06l0.78,0.04c0.26,0.02,0.52,0,0.78,0.15c0.51,0.27,0.99,1.02,1.43,2.35c0.43,1.46,0.83,3.14,1.11,6.35
			c0.07,0.86,0.01,1.7-0.16,2.49L418.91,268.78z"/>
	</defs>
	<clipPath id="SVGID_2_">
		<use xlink:href="#SVGID_1_"  style="overflow:visible;"/>
	</clipPath>
	<g class="st0">
		<path class="st1" d="M418.89,269.11c-1.5,7.38-2.55,9.93-3.51,10.58c-0.24,0.16-0.47,0.1-0.7,0.09l-0.69-0.04l-1.43-0.05
			c-1.92-0.06-3.8-0.15-5.75-0.18c-3.86-0.1-7.77-0.14-11.67-0.18c-7.83-0.04-15.68-0.03-23.55,0.07
			c-15.74,0.08-31.52,0.41-47.29,0.78c-15.78,0.32-31.55,0.89-47.33,1.39c-7.89,0.29-15.78,0.59-23.66,0.93
			c-7.89,0.3-15.77,0.64-23.66,1.03l-23.65,1.2l-23.63,1.41c-7.88,0.46-15.74,1.06-23.61,1.61l-11.8,0.89l-11.78,1
			c-15.7,1.36-31.37,3-46.99,5.01l-5.86,0.76l-5.83,0.87c-1.94,0.3-3.9,0.57-5.83,0.89l-5.8,1.01c-3.9,0.59-7.73,1.39-11.59,2.15
			c-0.96,0.2-1.94,0.36-2.89,0.59l-2.86,0.67l-5.75,1.3l-0.08,0.02c-1.36,0.31-2.71-0.55-3.02-1.9c-0.28-1.23,0.39-2.44,1.52-2.9
			c7.46-2.99,15.08-5.62,22.76-7.93l5.78-1.69c1.93-0.55,3.87-1.04,5.8-1.56l5.81-1.54l5.83-1.42c15.57-3.78,31.28-6.8,47.02-9.52
			c15.75-2.68,31.55-4.93,47.37-6.94c7.91-1.05,15.83-1.9,23.75-2.8l11.89-1.27c3.96-0.42,7.93-0.76,11.9-1.15
			c31.73-3.02,63.52-5.06,95.35-6.46c15.92-0.68,31.85-1.12,47.82-1.4c7.98-0.1,15.98-0.12,24.01-0.08
			c4.02,0.03,8.05,0.08,12.11,0.18c2.01,0.03,4.09,0.13,6.14,0.19l1.54,0.06l0.79,0.04c0.26,0.02,0.53-0.01,0.79,0.17
			c1.02,0.76,1.94,3.42,2.42,10.91c0.07,1.07,0,2.11-0.2,3.11L418.89,269.11z"/>
	</g>
</g>
<g id="logo-dot">
	<defs>
		<path id="SVGID_3_" d="M265.55,151.59c1.62,4.12,6.19,6.31,10.45,4.91c1.2-0.39,2.26-1.18,2.91-1.81
			c0.35-0.34,0.71-0.73,0.97-1.1c0.26-0.36,0.49-0.75,0.74-1.12c0.96-1.49,1.78-2.91,2.57-4.31c1.58-2.8,2.92-5.57,4.26-8.31
			c1.3-2.76,2.54-5.5,3.72-8.22c1.17-2.72,2.32-5.45,3.35-8.05l0.09-0.22c1.18-2.99,0.42-6.54-2.16-8.75
			c-3.26-2.8-8.16-2.43-10.96,0.83c-2.09,2.44-3.91,4.84-5.73,7.24l-5.25,7.13c-1.69,2.36-3.41,4.65-5.06,6.83
			c-0.82,1.08-1.65,2.13-2.44,3.03c-0.83,0.93-1.48,1.63-1.01,2.84L265.55,151.59z"/>
	</defs>
	<clipPath id="SVGID_4_">
		<use xlink:href="#SVGID_3_"  style="overflow:visible;"/>
	</clipPath>
	<g class="st2">
		<path class="st1" d="M295.44,124.15c-0.96,2.61-2.06,5.35-3.19,8.1c-1.13,2.75-2.34,5.52-3.61,8.3c-1.31,2.77-2.63,5.58-4.2,8.42
			c-0.79,1.43-1.61,2.87-2.58,4.41c-0.25,0.38-0.49,0.78-0.75,1.15c-0.26,0.38-0.64,0.79-1,1.13c-0.68,0.64-1.81,1.46-3.11,1.83
			c-4.76,1.36-9.7-1.1-11.58-5.54l-4.41-10.44c-0.31-0.73-0.4-0.97-0.19-1.51c0.09-0.24,0.2-0.39,0.38-0.61
			c0.17-0.22,0.38-0.42,0.56-0.64c0.77-0.86,1.6-1.88,2.43-2.94c1.65-2.13,3.4-4.4,5.11-6.73c1.75-2.31,3.51-4.68,5.36-7.05
			c1.86-2.37,3.73-4.76,5.89-7.18c3.28-3.66,8.91-3.98,12.57-0.7c2.79,2.5,3.64,6.36,2.43,9.68L295.44,124.15z"/>
	</g>
</g>
<g id="logo-im">
	<defs>
		<path id="SVGID_5_" d="M413.42,228.54c-0.27-1.18-1.45-1.91-2.62-1.64c-1.6,0.37-3.01,0.9-4.35,1.37l-3.8,1.34
			c-2.42,0.85-4.8,1.32-7.25,1.55c-0.42,0.06-0.85,0.08-1.29,0.1c-0.08-0.13-0.22-0.38-0.36-0.7c-0.34-0.75-0.66-1.87-0.91-3.06
			c-0.25-1.2-0.44-2.5-0.58-3.84c-0.57-5.4-0.59-11.23-0.75-17.14c-0.08-2.97-0.15-5.97-0.35-9.09c-0.1-1.56-0.22-3.15-0.44-4.83
			c-0.11-0.84-0.24-1.7-0.42-2.62l-0.15-0.7l-0.09-0.39c-0.05-0.2-0.1-0.39-0.17-0.61c-0.27-0.83-0.68-1.85-1.55-2.97
			c-0.84-1.12-2.39-2.29-3.99-2.74c-1.61-0.49-2.94-0.4-3.96-0.24c-2,0.37-3.11,0.99-4.13,1.53c-1.95,1.12-3.3,2.23-4.61,3.34
			c-2.57,2.22-4.74,4.47-6.85,6.75c-4.19,4.55-8.02,9.19-11.78,13.86c-3.17,3.94-6.27,7.9-9.35,11.83
			c0.17-1.97,0.36-3.95,0.59-5.95c0.33-2.87,0.71-5.75,1.11-8.63l1.31-8.81c0.08-0.68,0.17-1.42,0.08-2.63
			c-0.07-0.64-0.17-1.41-0.61-2.5c-0.13-0.3-0.24-0.55-0.43-0.87c-0.2-0.34-0.38-0.62-0.65-0.96c-0.52-0.66-1.24-1.31-2.05-1.78
			c-0.41-0.24-0.83-0.44-1.23-0.58c-0.2-0.07-0.42-0.14-0.62-0.2c-0.18-0.05-0.37-0.09-0.56-0.13c-0.4-0.08-0.72-0.11-1.03-0.13
			l-0.47-0.01l-0.39,0.01c-1.03,0.06-1.75,0.26-2.27,0.43c-1.09,0.37-1.7,0.71-2.28,1.04c-1.11,0.65-1.88,1.23-2.61,1.8
			c-0.73,0.57-1.38,1.13-2.01,1.68c-2.48,2.21-4.62,4.39-6.74,6.6c-4.21,4.41-8.18,8.85-12.14,13.28
			c-2.54,2.84-5.06,5.68-7.58,8.46c0.49-2.45,1.03-4.93,1.59-7.41l1.99-8.62l1-4.42l0.48-2.31c0.15-0.81,0.31-1.6,0.44-2.66
			c0.48-3.63-2.09-6.94-5.72-7.42c-2.51-0.33-4.88,0.79-6.26,2.72c-2.15,1.64-4.11,3.32-6.03,5c-2.3,1.99-4.46,4.05-6.65,6.06
			l-12.8,12.06c-4.23,3.94-8.47,7.79-12.73,11.21c-2.12,1.71-4.28,3.29-6.34,4.59c-1.03,0.65-2.04,1.21-2.95,1.64
			c-0.31,0.15-0.6,0.27-0.87,0.38c0.01-0.56,0.06-1.18,0.14-1.85c0.29-2.21,0.89-4.76,1.67-7.31c0.76-2.58,1.68-5.21,2.66-7.86
			c1.98-5.3,4.2-10.68,6.43-16.14c1.11-2.74,2.22-5.5,3.31-8.32c0.53-1.42,1.06-2.85,1.57-4.35c0.25-0.74,0.49-1.52,0.72-2.31
			c0.01-0.05,0.03-0.09,0.04-0.14c1.23-2.46,0.95-5.53-0.97-7.74c-2.54-2.94-6.98-3.26-9.91-0.72c-0.59,0.51-1.57,1.17-2.63,1.81
			c-1.05,0.64-2.21,1.25-3.36,1.87c-2.33,1.22-4.74,2.37-7.2,3.47c-4.92,2.18-9.92,4.27-14.98,6.24
			c-10.1,3.98-20.39,7.54-30.7,10.96c-10.32,3.35-20.69,6.55-31.08,9.32c-1.3,0.36-2.61,0.62-3.84,1.24
			c-1.23,0.61-2.42,1.45-3.69,1.92c-0.64,0.23-1.27,0.45-1.94,0.52c-0.67,0.07-1.37-0.03-2.07-0.15c-0.7-0.11-1.38-0.17-2.03-0.04
			c-0.65,0.13-1.27,0.46-1.9,0.66c-2.51,0.95-5.03,1.96-7.57,2.96c-0.63,0.25-1.27,0.51-1.92,0.79c-0.64,0.26-1.28,0.47-1.93,0.75
			c-1.31,0.57-2.61,0.97-4,1.58l-0.07,0.03c-0.17,0.07-0.31,0.2-0.4,0.38c-0.2,0.4-0.04,0.9,0.36,1.1c2.72,1.37,5.7,2.2,8.61,2.72
			c2.94,0.54,5.86,0.76,8.77,0.82c0.73,0.01,1.46,0.07,2.16-0.05c0.7-0.12,1.37-0.43,2.02-0.79c0.65-0.36,1.3-0.73,1.97-0.95
			c0.67-0.22,1.38-0.28,2.09-0.33c1.43-0.07,2.9,0.11,4.35,0.11c1.45,0.03,2.8-0.37,4.17-0.69c10.94-2.54,21.6-5.78,32.13-9.32
			c10.54-3.53,20.92-7.44,31.25-11.53c5.16-2.06,10.32-4.14,15.46-6.38c0.49-0.21,0.98-0.43,1.47-0.64
			c-2.98,4.94-5.88,10.01-8.5,15.38c-1.37,2.78-2.64,5.65-3.81,8.67c-1.14,3.04-2.21,6.19-2.88,9.83
			c-0.33,1.83-0.58,3.77-0.54,6.02c0.02,1.12,0.14,2.34,0.39,3.63c0.27,1.31,0.7,2.73,1.42,4.18c0.7,1.45,1.78,2.93,3.08,4.14
			c1.29,1.2,2.81,2.2,4.5,2.86c1.67,0.66,3.36,0.96,4.89,1.03c1.54,0.07,2.88-0.08,4.14-0.3c2.44-0.47,4.44-1.22,6.21-2.04
			c1.77-0.82,3.34-1.72,4.82-2.64c2.96-1.84,5.54-3.84,8-5.86c4.91-4.06,9.29-8.35,13.51-12.7c2.55-2.64,5.03-5.32,7.45-8.01
			c-0.13,0.6-0.26,1.19-0.38,1.79c-0.6,3.02-1.15,6.05-1.5,9.38c-0.09,0.84-0.16,1.7-0.2,2.62c-0.04,0.93-0.05,1.89,0.05,3.08
			c0.05,0.6,0.13,1.26,0.33,2.08c0.23,0.84,0.45,1.85,1.51,3.39c0.54,0.75,1.39,1.66,2.63,2.34c1.23,0.69,2.73,0.98,3.86,0.95
			c1.16-0.03,2-0.26,2.66-0.49c0.67-0.24,1.17-0.49,1.58-0.72c0.43-0.24,0.76-0.46,1.07-0.68l0.43-0.32l0.32-0.25
			c0.4-0.33,0.76-0.63,1.09-0.93c0.67-0.6,1.27-1.17,1.85-1.74c1.16-1.14,2.23-2.25,3.29-3.37c4.19-4.45,8.1-8.9,12.04-13.31
			c3.57-3.99,7.13-7.96,10.72-11.77c-0.15,1.24-0.3,2.48-0.44,3.72c-0.33,3.02-0.62,6.05-0.81,9.16c-0.17,3.14-0.33,6.22-0.02,9.91
			c0.1,0.95,0.21,1.92,0.51,3.16c0.16,0.63,0.36,1.32,0.74,2.19c0.23,0.48,0.45,0.94,0.88,1.55c0.16,0.25,0.46,0.62,0.75,0.94
			c0.25,0.29,0.7,0.69,1.13,1.01c0.89,0.68,2.21,1.27,3.55,1.44c1.32,0.17,2.5-0.02,3.35-0.28c0.38-0.12,0.85-0.29,1.14-0.43
			c0.3-0.14,0.59-0.3,0.87-0.46c0.43-0.27,0.9-0.6,1.19-0.84l0.47-0.4l0.39-0.36c0.27-0.26,0.46-0.46,0.67-0.69l0.48-0.54
			l0.41-0.47c2.08-2.47,3.88-4.81,5.72-7.18c3.63-4.73,7.18-9.41,10.79-14.01c3.61-4.59,7.27-9.12,11.05-13.33
			c1.5-1.66,3.03-3.28,4.55-4.71c0.01,0.17,0.03,0.32,0.05,0.49c0.24,2.79,0.38,5.7,0.53,8.64c0.13,2.95,0.31,5.94,0.55,8.98
			c0.24,3.04,0.55,6.12,1.09,9.3c0.27,1.59,0.6,3.21,1.04,4.88c0.47,1.68,1.01,3.41,2,5.31c0.5,0.94,1.12,1.94,2.02,2.95
			c0.88,0.99,2.14,2.02,3.71,2.66c1.55,0.66,3.36,0.83,4.74,0.65c0.86-0.13,1.71-0.25,2.55-0.45c3.39-0.72,6.7-2.12,9.53-4.01
			c1.41-0.95,2.69-2.05,3.79-3.26c1.1-1.2,2.05-2.48,2.81-3.88l0.02-0.03C413.46,229.62,413.55,229.08,413.42,228.54z
			 M248.36,232.33c0-0.02-0.01-0.05-0.01-0.07c0.01,0.03,0.03,0.06,0.04,0.08C248.44,232.47,248.41,232.46,248.36,232.33z
			 M340.91,199.54C340.92,199.54,340.92,199.54,340.91,199.54L340.91,199.54z M377.92,192.03c0-0.01,0.01,0.04,0.02,0.09
			c0,0,0-0.01,0-0.01C377.92,192.07,377.92,192.06,377.92,192.03z M393.82,231.28c-0.09,0.01-0.18,0.01-0.26,0.02
			C393.49,231.28,393.65,231.25,393.82,231.28z"/>
	</defs>
	<clipPath id="SVGID_6_">
		<use xlink:href="#SVGID_5_"  style="overflow:visible;"/>
	</clipPath>
	<g class="st3">
		<path class="st1" d="M419.41,238.38c-1.63,1.23-3.85,2.96-6.41,4.52c-2.56,1.58-5.5,3-8.55,4.01c-3.05,1.02-6.21,1.66-9.27,1.94
			c-1.71,0.17-3.97,0.08-6.1-0.53c-2.16-0.58-4.19-1.66-5.74-2.86c-1.55-1.2-2.67-2.46-3.54-3.62c-0.89-1.18-1.48-2.24-2-3.25
			c-1-2-1.57-3.71-2.03-5.28c-0.45-1.57-0.77-3.02-1.03-4.41c-0.51-2.77-0.8-5.3-1.02-7.76c-0.44-4.9-0.59-9.5-0.78-13.92
			c-0.09-2.2-0.17-4.36-0.29-6.41c-0.12-2.04-0.27-4.03-0.49-5.61c-0.05-0.4-0.11-0.75-0.17-1.06l-0.08-0.41l-0.04-0.16l-0.01-0.03
			l0.04,0.15l0.09,0.31c0.15,0.45,0.39,1.13,0.93,2.01c0.54,0.87,1.46,2.05,2.87,3.04c1.39,1,3.16,1.65,4.54,1.84
			c1.39,0.21,2.41,0.11,3.11,0c1.36-0.25,1.75-0.51,1.95-0.59c0.17-0.09,0.12-0.07-0.01,0.02c-0.28,0.19-0.83,0.61-1.4,1.11
			c-1.18,1.02-2.54,2.37-3.88,3.79c-1.35,1.43-2.72,2.96-4.08,4.53c-2.73,3.15-5.44,6.48-8.14,9.87c-2.7,3.39-5.38,6.86-8.1,10.36
			l-4.13,5.32c-1.42,1.81-2.81,3.58-4.51,5.59l-0.68,0.79l-0.55,0.6c-0.21,0.23-0.42,0.45-0.71,0.72c-0.52,0.5-1.16,1.08-2.08,1.73
			c-0.52,0.36-0.92,0.64-1.71,1.06c-0.37,0.19-0.69,0.36-1.11,0.54c-0.49,0.21-1,0.39-1.51,0.55c-0.44,0.15-1.2,0.33-1.88,0.43
			c-0.35,0.06-0.69,0.1-1.04,0.13c-0.33,0.03-0.81,0.05-1.21,0.04c-0.86-0.02-1.65-0.07-2.55-0.26c-0.88-0.18-1.78-0.45-2.57-0.78
			c-0.77-0.33-1.53-0.73-2.24-1.18c-0.61-0.4-1.15-0.83-1.69-1.3c-0.28-0.25-0.5-0.47-0.68-0.65c-0.19-0.2-0.38-0.4-0.56-0.61
			c-0.18-0.21-0.36-0.42-0.53-0.64c-0.16-0.2-0.26-0.35-0.38-0.53c-0.24-0.35-0.47-0.7-0.68-1.06c-0.16-0.28-0.31-0.57-0.46-0.86
			c-0.32-0.64-0.47-1.02-0.67-1.52c-0.19-0.48-0.29-0.81-0.42-1.23c-0.12-0.38-0.19-0.68-0.28-1.03c-0.58-2.49-0.67-4.07-0.77-5.63
			c-0.08-1.51-0.08-2.88-0.07-4.2c0.1-5.21,0.56-9.83,1.07-14.48c0.52-4.62,1.14-9.14,1.8-13.63l0.5-3.35l0.13-0.83l0.02-0.1
			c0-0.03,0,0.02-0.01,0.03l-0.01,0.1c-0.02,0.12-0.02,0.21-0.04,0.43c0,0.4-0.07,0.97,0.22,2.44c0.15,0.66,0.45,1.81,1.19,3.11
			c0.74,1.36,2.23,3.15,4.17,4.28c0.99,0.59,1.93,0.97,2.9,1.24c0.83,0.24,1.76,0.36,2.37,0.4c0.76,0.04,1.21,0.02,1.75-0.03
			c0.25-0.03,0.41-0.04,0.62-0.08l0.55-0.1c1.25-0.28,1.7-0.53,2.02-0.67c0.31-0.15,0.4-0.21,0.44-0.23
			c0.05-0.03,0.01-0.01-0.05,0.03c-0.26,0.18-0.88,0.68-1.5,1.23c-1.28,1.13-2.72,2.55-4.15,4c-1.44,1.47-2.89,3.01-4.35,4.58
			c-2.91,3.14-5.83,6.41-8.78,9.7c-2.95,3.3-5.92,6.63-9.01,10c-1.55,1.69-3.13,3.39-4.83,5.13c-0.86,0.88-1.74,1.77-2.76,2.72
			c-0.51,0.48-1.05,0.97-1.69,1.52c-0.33,0.28-0.67,0.56-1.1,0.89c-0.64,0.48-1.38,1.04-2.7,1.72c-0.28,0.15-0.75,0.36-1.15,0.52
			c-0.18,0.08-0.47,0.18-0.74,0.27c-0.27,0.09-0.52,0.17-0.82,0.25c-1.27,0.33-2.97,0.66-5.25,0.38c-0.6-0.08-1.21-0.2-1.8-0.35
			c-0.61-0.16-1.24-0.39-1.84-0.65c-1.18-0.51-2.33-1.25-3.2-1.99c-1.78-1.5-2.79-3.14-3.33-4.22c-0.17-0.33-0.27-0.56-0.38-0.82
			c-0.11-0.25-0.22-0.53-0.3-0.75c-0.14-0.4-0.3-0.9-0.38-1.22c-0.1-0.36-0.18-0.72-0.23-1l-0.08-0.45l-0.06-0.39
			c-0.15-1.02-0.18-1.76-0.19-2.41c-0.02-1.27,0.05-2.2,0.13-3.06c0.08-0.85,0.18-1.6,0.29-2.31c0.43-2.82,0.96-5.16,1.5-7.5
			c1.08-4.61,2.24-8.94,3.32-13.17c0.54-2.11,1.06-4.19,1.52-6.18c0.23-0.99,0.44-1.97,0.63-2.88c0.18-0.9,0.33-1.78,0.41-2.38
			l0.05-0.48c0,0.03-0.01,0.15,0.02,0.49c0.02,0.16,0.04,0.41,0.1,0.77c0.03,0.14,0.09,0.45,0.14,0.66l0.13,0.46l0.18,0.53
			c0.28,0.72,0.77,1.97,2.09,3.51c0.64,0.74,1.61,1.63,2.77,2.32c0.6,0.36,1.23,0.66,1.88,0.92c0.63,0.25,1.37,0.44,1.96,0.56
			c0.59,0.12,1.28,0.19,1.81,0.21c0.51,0.02,1.03,0,1.54-0.05c0.79-0.07,1.63-0.26,2.11-0.41c0.63-0.2,0.93-0.32,1.34-0.5
			l0.33-0.15l0.25-0.13c0.51-0.28,0.6-0.37,0.64-0.38c0.02-0.02-0.02,0.01-0.11,0.09c-0.37,0.29-1.08,0.92-1.76,1.55
			c-0.69,0.65-1.43,1.36-2.17,2.09c-2.99,2.95-6.09,6.15-9.23,9.33c-3.14,3.19-6.34,6.41-9.64,9.6c-3.31,3.18-6.71,6.35-10.32,9.46
			c-3.63,3.11-7.39,6.17-11.91,9.11c-2.29,1.46-4.74,2.91-7.96,4.21c-1.63,0.64-3.45,1.26-5.81,1.63c-1.18,0.18-2.5,0.3-4.01,0.24
			c-1.5-0.06-3.19-0.31-4.95-0.88c-0.88-0.3-1.76-0.66-2.61-1.12c-0.43-0.22-0.84-0.47-1.25-0.73c-0.42-0.26-0.73-0.5-1.09-0.77
			c-1.4-1.03-2.62-2.33-3.63-3.69c-1.97-2.74-2.87-5.51-3.32-7.79c-0.45-2.31-0.5-4.26-0.45-6.02c0.06-1.76,0.25-3.33,0.48-4.82
			c0.49-2.96,1.17-5.56,1.93-8.05c0.76-2.47,1.59-4.82,2.48-7.1c1.76-4.55,3.69-8.84,5.69-13.03c1.99-4.18,4.07-8.26,6.13-12.24
			l3.03-5.86l1.36-2.73l0.53-1.13l0.13-0.3c0.03-0.06-0.01,0.04-0.02,0.06l-0.05,0.18l-0.07,0.28l2.54-4.85
			c-0.03,0.03-0.05,0.06-0.23,0.32c-0.17,0.3-0.46,0.64-0.9,2.05l-0.07,0.27l-0.09,0.37c-0.06,0.27-0.09,0.47-0.13,0.8
			c-0.05,0.37-0.08,0.75-0.08,1.12c0,0.15,0,0.45,0.01,0.72c0.01,0.27,0.04,0.54,0.07,0.81c0.06,0.44,0.21,1.31,0.45,2
			c0.2,0.62,0.63,1.64,1.15,2.44c0.13,0.21,0.27,0.4,0.41,0.6c0.16,0.22,0.33,0.44,0.51,0.66c0.36,0.43,0.76,0.83,1.18,1.19
			c0.82,0.72,1.76,1.33,2.74,1.76c0.81,0.38,1.8,0.67,2.58,0.8c0.67,0.13,1.46,0.18,2.06,0.17c0.51,0,1.03-0.05,1.53-0.13
			c0.39-0.06,0.73-0.13,1.09-0.23c1.24-0.35,1.95-0.76,2.41-1.02c0.94-0.59,1.26-0.95,1.51-1.2c0.23-0.26,0.32-0.38,0.37-0.46
			c0.09-0.15,0.03-0.07-0.05,0.12l-1.01,2.44l-1.84,1.63c-0.41,0.37-0.91,0.78-1.29,1.06l-0.91,0.64l-0.74,0.47
			c-0.25,0.16-0.47,0.29-0.67,0.41c-0.43,0.25-0.84,0.49-1.21,0.69l-1.12,0.6c-1.45,0.75-2.81,1.41-4.15,2.04
			c-2.68,1.25-5.31,2.39-7.93,3.5c-5.25,2.18-10.47,4.21-15.72,6.18c-10.5,3.87-21.08,7.41-31.78,10.63
			c-5.35,1.61-10.73,3.17-16.14,4.63c-5.43,1.43-10.88,2.84-16.46,3.87c-5.57,1.06-11.25,1.8-17.07,2.13
			c-2.91,0.12-5.88,0.05-8.89-0.32c-1.5-0.18-3.02-0.44-4.54-0.82c-1.51-0.37-3.05-0.85-4.54-1.53c-1.99-0.91-2.87-3.26-1.96-5.26
			c0.44-0.97,1.23-1.68,2.15-2.04l0.32-0.13c4.94-1.94,9.8-3.72,14.81-5.34c5.01-1.54,10.06-3.2,15.13-4.84
			c10.16-3.23,20.44-6.49,30.58-10.22c5.08-1.84,10.13-3.77,15.16-5.73c5.04-1.94,10.06-3.95,15.04-6
			c4.99-2.03,9.95-4.12,14.79-6.29c2.42-1.08,4.81-2.17,7.09-3.28c1.13-0.55,2.23-1.11,3.21-1.65l0.69-0.39
			c0.23-0.13,0.42-0.24,0.58-0.34c0.09-0.06,0.17-0.1,0.21-0.13l0.13-0.09c-0.03,0.01-0.05,0.03-0.07,0.05
			c-0.11,0.08-0.35,0.26-0.49,0.41l-2.85,4.07c0.56-1.33,1.25-2.73,2.27-4.25c0.52-0.76,1.1-1.54,1.91-2.4
			c0.82-0.85,1.75-1.76,3.4-2.78c0.81-0.49,1.89-1.07,3.53-1.53c0.46-0.12,0.9-0.22,1.39-0.3c0.61-0.09,1.23-0.15,1.84-0.16
			c0.7-0.01,1.59,0.06,2.36,0.2c0.88,0.15,1.97,0.48,2.87,0.89c1.07,0.49,2.1,1.14,3,1.93c0.46,0.4,0.89,0.84,1.28,1.3
			c0.2,0.23,0.39,0.47,0.56,0.71c0.16,0.22,0.31,0.44,0.45,0.67c0.57,0.89,1.06,2,1.28,2.72c0.26,0.79,0.46,1.76,0.52,2.3
			c0.04,0.32,0.07,0.64,0.09,0.96c0.02,0.32,0.02,0.67,0.02,0.87c-0.01,0.48-0.04,0.96-0.1,1.43c-0.06,0.43-0.11,0.73-0.19,1.1
			l-0.12,0.53l-0.12,0.42c-0.67,2.2-1.37,3.28-1.98,4.27c-0.63,0.96-1.18,1.63-1.74,2.29l2.54-4.85l-0.19,0.68l-0.1,0.34
			l-0.08,0.24c-0.1,0.29-0.22,0.65-0.3,0.84c-0.18,0.49-0.34,0.87-0.5,1.24c-0.3,0.7-0.58,1.33-0.85,1.9
			c-0.54,1.16-1.06,2.21-1.57,3.25l-3.01,6.01c-1.97,3.93-3.88,7.79-5.66,11.64c-1.78,3.85-3.44,7.68-4.84,11.43
			c-1.39,3.71-2.55,7.49-2.98,10.4c-0.1,0.71-0.16,1.34-0.17,1.8c-0.01,0.46,0.04,0.74,0.03,0.61c0.08-0.09-0.86-3.05-4.13-4.08
			c-1.44-0.46-2.23-0.3-2.37-0.3c-0.16,0.03,0.14-0.04,0.57-0.23c0.9-0.37,2.32-1.16,3.74-2.11c2.91-1.93,6.05-4.49,9.12-7.19
			c3.09-2.72,6.16-5.64,9.21-8.65c3.07-3,6.12-6.09,9.19-9.24c3.09-3.15,6.15-6.34,9.47-9.64c0.84-0.83,1.69-1.67,2.62-2.54
			c0.94-0.88,1.88-1.76,3.24-2.85c0.34-0.27,0.74-0.58,1.21-0.92c0.49-0.34,1.04-0.73,2.04-1.28l0.44-0.23l0.52-0.24
			c0.53-0.23,0.96-0.41,1.73-0.64c0.61-0.19,1.59-0.41,2.52-0.5c0.58-0.05,1.16-0.07,1.75-0.05c0.6,0.02,1.36,0.1,2.02,0.23
			c0.66,0.12,1.46,0.35,2.16,0.62c0.71,0.27,1.4,0.61,2.06,1.01c1.28,0.76,2.36,1.75,3.09,2.59c1.5,1.75,2.12,3.24,2.49,4.23
			c0.11,0.31,0.17,0.5,0.24,0.73l0.19,0.66c0.09,0.35,0.19,0.79,0.23,1.06c0.12,0.64,0.17,1.16,0.21,1.6
			c0.07,0.89,0.07,1.56,0.06,2.15c-0.03,1.15-0.12,2.03-0.21,2.84c-0.19,1.6-0.43,2.91-0.68,4.19c-0.25,1.27-0.51,2.46-0.77,3.63
			c-0.53,2.34-1.08,4.56-1.63,6.76c-1.1,4.37-2.22,8.63-3.14,12.67c-0.46,1.99-0.87,3.99-1.1,5.56c-0.06,0.38-0.1,0.74-0.12,0.99
			c-0.02,0.25-0.02,0.43-0.02,0.26c0-0.1,0-0.28-0.07-0.75l-0.07-0.43c-0.03-0.14-0.08-0.37-0.14-0.59
			c-0.05-0.18-0.16-0.55-0.26-0.82c-0.06-0.15-0.14-0.38-0.22-0.56c-0.08-0.19-0.16-0.36-0.3-0.63c-0.43-0.83-1.26-2.24-2.84-3.56
			c-0.76-0.65-1.79-1.31-2.85-1.77c-0.53-0.24-1.1-0.43-1.64-0.58c-0.52-0.14-1.06-0.25-1.59-0.31c-2.01-0.24-3.43,0.04-4.43,0.31
			c-0.23,0.06-0.42,0.12-0.62,0.19l-0.54,0.2c-0.28,0.11-0.61,0.27-0.78,0.35c-0.82,0.43-1.11,0.67-1.31,0.81l0.19-0.16
			c0.2-0.17,0.48-0.43,0.78-0.71c0.6-0.57,1.28-1.25,1.97-1.97c1.39-1.43,2.83-3,4.27-4.58c2.89-3.18,5.82-6.5,8.78-9.82
			c2.97-3.33,5.97-6.68,9.09-10.05c1.56-1.69,3.16-3.37,4.82-5.08c1.68-1.71,3.4-3.42,5.44-5.23c1.04-0.92,2.13-1.85,3.68-2.95
			c0.4-0.28,0.82-0.57,1.34-0.89c0.51-0.31,1.09-0.65,1.9-1.04c0.82-0.38,1.79-0.83,3.58-1.23c0.19-0.04,0.5-0.1,0.75-0.14
			c0.28-0.04,0.51-0.08,0.83-0.11c0.69-0.06,1.27-0.09,2.17-0.04c0.76,0.04,1.82,0.19,2.78,0.46c1.11,0.31,2.17,0.75,3.28,1.41
			c2.17,1.27,3.86,3.27,4.74,4.87c0.87,1.54,1.27,2.96,1.47,3.89c0.41,2.02,0.34,3.14,0.32,4.1c-0.02,0.49-0.06,0.85-0.1,1.25
			l-0.12,0.85l-0.12,0.81l-0.49,3.23c-0.63,4.29-1.22,8.56-1.69,12.77c-0.47,4.18-0.85,8.4-0.92,12.07c-0.01,0.9,0,1.76,0.03,2.46
			c0.02,0.65,0.14,1.3,0.08,0.97c-0.02-0.08-0.03-0.11-0.06-0.23c-0.04-0.15-0.07-0.21-0.15-0.44c-0.09-0.25-0.15-0.36-0.33-0.75
			c-0.08-0.17-0.17-0.33-0.27-0.49c-0.14-0.25-0.29-0.49-0.45-0.72l-0.27-0.36c-0.12-0.16-0.25-0.33-0.39-0.48
			c-0.14-0.16-0.28-0.31-0.42-0.46l-0.53-0.51c-0.42-0.39-0.86-0.72-1.36-1.04c-0.58-0.39-1.22-0.73-1.87-0.99
			c-0.66-0.28-1.43-0.52-2.17-0.66c-0.77-0.14-1.41-0.22-2.14-0.22c-0.33,0-0.75,0.02-1.01,0.04c-0.28,0.02-0.56,0.05-0.83,0.1
			c-0.54,0.08-1.16,0.25-1.47,0.34c-0.38,0.11-0.76,0.25-1.12,0.41c-0.29,0.13-0.5,0.22-0.74,0.35c-0.54,0.3-0.72,0.41-1.01,0.62
			c-0.47,0.33-0.69,0.55-0.81,0.66l-0.13,0.13c-0.01,0.01-0.09,0.11,0.01-0.01l0.41-0.47c1.17-1.38,2.53-3.09,3.85-4.78l4.04-5.2
			c2.72-3.51,5.47-7.07,8.3-10.62c2.83-3.56,5.72-7.11,8.8-10.68c1.54-1.78,3.13-3.56,4.83-5.36c1.71-1.8,3.49-3.6,5.66-5.49
			c1.1-0.95,2.29-1.92,3.85-2.98c0.78-0.53,1.69-1.09,2.85-1.67c1.19-0.57,2.63-1.24,5.09-1.68c1.24-0.2,2.83-0.33,4.77-0.04
			c1.93,0.27,4.24,1.13,6.07,2.45c1.86,1.31,3.16,2.91,3.98,4.26c0.83,1.36,1.3,2.55,1.61,3.53l0.21,0.71l0.13,0.52l0.15,0.65
			l0.25,1.22c0.15,0.78,0.27,1.53,0.36,2.23c0.39,2.82,0.55,5.26,0.69,7.65c0.13,2.38,0.22,4.66,0.3,6.89
			c0.15,4.45,0.29,8.73,0.62,12.68c0.17,1.96,0.38,3.84,0.67,5.44c0.14,0.8,0.3,1.52,0.46,2.08c0.08,0.29,0.15,0.51,0.21,0.69
			c0.06,0.15,0.11,0.28,0.1,0.25c-0.01-0.02-0.06-0.11-0.27-0.41c-0.21-0.28-0.57-0.71-1.25-1.23c-0.67-0.52-1.69-1.09-2.78-1.38
			c-1.06-0.31-2.2-0.33-2.8-0.26c1.36-0.12,2.59-0.37,3.75-0.75c1.16-0.38,2.26-0.88,3.48-1.62c1.23-0.73,2.55-1.72,4.46-3.15
			c5.45-4.1,13.19-3,17.29,2.45c4.1,5.45,3,13.19-2.45,17.29L419.41,238.38z"/>
	</g>
</g>
<g id="logo-a">
	<defs>
		<path id="SVGID_7_" d="M217.48,436.03l-0.02-0.13c-1.3-7.27-2.24-14.86-3-22.49c-0.37-3.82-0.69-7.67-1.02-11.51
			c-0.27-3.86-0.59-7.71-0.83-11.58c-1.04-15.48-1.63-31.05-2.16-46.63c-0.5-15.59-0.9-31.2-1.19-46.82l-0.64-46.89
			c-0.3-31.28-0.95-62.57-0.68-93.93c0.02-15.68,0.07-31.38-0.56-47.13c-0.18-3.94-0.35-7.87-0.59-11.83
			c-0.12-1.97-0.22-3.95-0.37-5.92c-0.15-1.98-0.36-3.96-0.56-5.94c-0.18-1.88-0.43-3.77-0.71-5.66c0.17-3.46,0.21-6.96,0.07-10.5
			c0-0.03-0.01-0.11-0.01-0.15c-0.16-2.78-1.69-5.14-3.88-6.5c-0.11-0.33-0.21-0.67-0.32-1c-0.82-2.42-3.1-4.18-5.8-4.2
			c-3.4-0.02-6.17,2.72-6.18,6.12l0,0.25c-0.01,1.3-0.01,2.62-0.01,3.93c-0.18,0.75-0.25,1.54-0.2,2.35l0,0.07
			c0.42,7.25-0.06,14.83-1.02,22.42c-0.96,7.6-2.42,15.23-4.19,22.83c-3.54,15.2-8.16,30.3-13.4,45.21
			c-5.23,14.92-11.07,29.66-17.36,44.22c-3.15,7.28-6.41,14.5-9.8,21.65c-1.7,3.57-3.43,7.13-5.2,10.63c-1.77,3.5-3.6,7-5.47,10.27
			l-0.03,0.06c-1.77,3.1-0.74,7.06,2.34,8.89c3.11,1.85,7.14,0.84,8.99-2.28c2.17-3.64,4.11-7.21,6.01-10.82
			c1.9-3.6,3.74-7.21,5.54-10.84c3.6-7.25,7.05-14.56,10.38-21.92c6.66-14.72,12.88-29.65,18.51-44.85
			c2.64-7.12,5.14-14.3,7.48-21.56c0.16,4.14,0.31,8.29,0.45,12.44c1.21,31.21,0.82,62.5,0.95,93.79l0.16,46.97
			c0.07,15.67,0.15,31.34,0.38,47.04c0.23,15.7,0.63,31.4,1.23,47.17c0.15,3.94,0.37,7.89,0.55,11.84
			c0.23,3.96,0.47,7.92,0.75,11.89c0.61,7.95,1.31,15.93,2.51,24.11c0.01,0.08,0.03,0.21,0.05,0.29c0.93,5.22,5.91,8.7,11.13,7.77
			C214.94,446.23,218.41,441.25,217.48,436.03z"/>
	</defs>
	<clipPath id="SVGID_8_">
		<use xlink:href="#SVGID_7_"  style="overflow:visible;"/>
	</clipPath>
	<g class="st4">
		<path class="st1" d="M195.67,439.58c-1.27-8.33-1.99-16.35-2.57-24.34c-0.6-7.99-1.01-15.91-1.35-23.82
			c-0.66-15.81-0.99-31.55-1.2-47.26c-0.49-31.42-0.5-62.75-0.47-94.06c0.03-15.65,0.03-31.29-0.03-46.93
			c-0.05-15.63-0.13-31.25-0.3-46.85c-0.18-15.6-0.43-31.18-0.97-46.68c-0.28-7.75-0.61-15.48-1.11-23.13
			c-0.24-3.83-0.55-7.62-0.92-11.37c-0.36-3.74-0.84-7.44-1.46-10.88l-0.39-2.17l0.53-1.99c0.19-0.73,0.25-0.83,0.39-1.22
			c0.12-0.31,0.28-0.68,0.48-1.07c0.23-0.43,0.46-0.83,0.91-1.43c0.39-0.52,1-1.22,1.98-1.96c0.91-0.69,2.43-1.51,4.08-1.8
			c1.85-0.34,3.37-0.16,4.71,0.23c1.51,0.49,1.86,0.75,2.76,1.3c0.72,0.5,0.9,0.68,1.33,1.07c0.43,0.42,0.56,0.58,0.76,0.81
			c0.18,0.21,0.38,0.47,0.51,0.66c0.19,0.27,0.4,0.59,0.55,0.85l0.32,0.58l0.21,0.43c0.46,1.03,0.58,1.48,0.75,1.97
			c0.28,0.91,0.44,1.57,0.59,2.22c0.29,1.27,0.57,2.39,0.8,3.51l0.35,1.73l0.26,1.95c0.16,1.29,0.26,2.5,0.34,3.73
			c0.3,4.87,0.14,9.5-0.25,14.01c-0.79,9.01-2.37,17.6-4.25,26.04c-3.8,16.86-8.83,33.1-14.47,49.08
			c-5.66,15.96-11.97,31.61-18.81,47.04c-3.47,7.69-7.16,15.28-11.21,22.73c-2.01,3.73-4.14,7.41-6.36,11.07
			c-2.26,3.66-4.53,7.25-7.33,10.9c-2.68,3.51-7.7,4.17-11.2,1.49c-2.91-2.22-3.86-6.05-2.57-9.3l0.11-0.27l8.98-22.56
			c3.06-7.62,6.19-15.23,9.34-22.82c6.38-15.16,12.47-30.45,18.11-45.83c2.81-7.69,5.54-15.4,8.03-23.15
			c2.53-7.73,4.84-15.51,6.81-23.28c1.96-7.76,3.59-15.56,4.45-23.13c0.44-3.78,0.63-7.49,0.52-10.95c0-0.44-0.05-0.85-0.08-1.27
			c-0.03-0.41-0.05-0.86-0.1-1.22l-0.13-1.15l-0.18-1.35c-0.14-0.93-0.26-1.86-0.42-2.61c-0.08-0.37-0.17-0.72-0.2-0.81
			c-0.01-0.03,0-0.01,0.02,0.04c0.03,0.07,0.05,0.15,0.19,0.46l0.13,0.26c0.07,0.14,0.14,0.27,0.22,0.41
			c0.12,0.2,0.28,0.46,0.44,0.68c0.11,0.16,0.29,0.4,0.45,0.58c0.17,0.2,0.28,0.33,0.69,0.73c0.41,0.38,0.57,0.53,1.26,1.01
			c0.87,0.54,1.2,0.78,2.68,1.26c1.31,0.38,2.79,0.55,4.61,0.22c1.62-0.29,3.11-1.09,4-1.76c0.95-0.72,1.54-1.4,1.91-1.89
			c0.43-0.57,0.64-0.94,0.86-1.35c0.19-0.36,0.34-0.69,0.44-0.98c0.13-0.36,0.17-0.43,0.36-1.12l0.14-4.16
			c0.76,4.27,1.24,8.33,1.68,12.37c0.43,4.03,0.79,8.03,1.07,12.01c0.6,7.96,1,15.85,1.35,23.74c0.68,15.76,1.07,31.46,1.39,47.15
			c0.64,31.37,0.8,62.68,1.29,93.95c0.45,31.27,0.93,62.51,1.9,93.66c0.54,15.56,1.21,31.11,2.18,46.54
			c0.5,7.71,1.06,15.41,1.8,23.01c0.76,7.59,1.66,15.14,2.95,22.25l0.01,0.06c1.23,6.79-3.29,13.3-10.08,14.53
			c-6.79,1.23-13.3-3.29-14.53-10.08C195.71,439.83,195.69,439.68,195.67,439.58z"/>
	</g>
</g>
</svg>
