<?xml version="1.0" encoding="utf-8"?>
<!-- Generator: Adobe Illustrator 21.1.0, SVG Export Plug-In . SVG Version: 6.00 Build 0)  -->
<svg version="1.1" id="Layer_1" xmlns="http://www.w3.org/2000/svg" xmlns:xlink="http://www.w3.org/1999/xlink" x="0px" y="0px"
	 viewBox="0 0 500 500" style="enable-background:new 0 0 500 500;" xml:space="preserve">
<g id="logo-lockup">
	<path d="M250,0C111.93,0,0,111.93,0,250s111.93,250,250,250s250-111.93,250-250S388.07,0,250,0z M263.01,139.66
		c0.79-0.9,1.61-1.95,2.44-3.03c1.64-2.18,3.37-4.47,5.06-6.83l5.25-7.13c1.81-2.4,3.63-4.81,5.73-7.24
		c2.8-3.26,7.7-3.63,10.96-0.83c2.58,2.22,3.35,5.76,2.16,8.75l-0.09,0.22c-1.03,2.6-2.18,5.32-3.35,8.05
		c-1.18,2.73-2.42,5.47-3.72,8.22c-1.34,2.74-2.68,5.51-4.26,8.31c-0.79,1.41-1.61,2.82-2.57,4.31c-0.25,0.37-0.48,0.76-0.74,1.12
		c-0.26,0.37-0.62,0.76-0.97,1.1c-0.65,0.63-1.71,1.42-2.91,1.81c-4.26,1.39-8.83-0.8-10.45-4.91L262,142.5
		C261.53,141.29,262.18,140.59,263.01,139.66z M418.93,268.72l-0.02,0.06c-0.71,3.16-1.3,4.79-1.86,6.19
		c-0.55,1.27-1.06,1.97-1.54,2.18c-0.24,0.12-0.47,0.07-0.71,0.06l-0.7-0.04l-1.44-0.05c-1.93-0.06-3.83-0.15-5.79-0.18
		c-3.88-0.1-7.8-0.14-11.72-0.18c-7.85-0.04-15.72-0.03-23.6,0.07c-15.76,0.1-31.55,0.44-47.34,0.84
		c-15.79,0.37-31.58,0.95-47.37,1.51c-7.89,0.31-15.79,0.64-23.68,1.02c-7.89,0.34-15.79,0.72-23.67,1.14l-20.42,1.14l0.2,14.38
		c0.29,15.62,0.69,31.23,1.19,46.82c0.53,15.58,1.13,31.15,2.16,46.63c0.24,3.87,0.56,7.72,0.83,11.58
		c0.32,3.84,0.65,7.69,1.02,11.51c0.76,7.63,1.71,15.22,3,22.49l0.02,0.13c0.93,5.22-2.55,10.2-7.77,11.13s-10.2-2.55-11.13-7.77
		c-0.01-0.08-0.03-0.21-0.05-0.29c-1.2-8.18-1.89-16.16-2.51-24.11c-0.28-3.97-0.52-7.93-0.75-11.89c-0.18-3.95-0.4-7.9-0.55-11.84
		c-0.6-15.77-1-31.48-1.23-47.17s-0.31-31.37-0.38-47.04l-0.05-13.55l-10.89,0.71c-7.88,0.51-15.75,1.16-23.62,1.78l-11.8,0.98
		l-11.79,1.1c-15.72,1.44-31.39,3.27-46.99,5.48l-5.85,0.83l-5.83,0.94c-1.94,0.32-3.89,0.61-5.83,0.96l-5.8,1.08
		c-3.89,0.65-7.72,1.5-11.57,2.31c-1.94,0.38-3.84,0.86-5.74,1.34l-5.74,1.39l-0.06,0.02c-1.07,0.26-2.16-0.4-2.42-1.47
		c-0.24-0.99,0.3-1.99,1.23-2.34c7.48-2.87,15.1-5.4,22.79-7.6l5.78-1.62c1.93-0.52,3.87-0.99,5.81-1.49l5.82-1.47l5.84-1.35
		l5.84-1.35c1.95-0.43,3.91-0.81,5.86-1.21c3.91-0.8,7.82-1.61,11.75-2.32c7.84-1.51,15.7-2.85,23.57-4.18
		c15.74-2.55,31.54-4.68,47.35-6.59c4.08-0.49,8.16-0.96,12.25-1.42l-0.06-17.92c-0.05-12.41-0.02-24.83-0.04-37.23
		c-8.49,2.73-17.07,5.22-25.84,7.25c-1.37,0.32-2.72,0.72-4.17,0.69c-0.72,0-1.44-0.04-2.17-0.08c-1.81,3.84-3.66,7.66-5.55,11.47
		c-1.8,3.63-3.64,7.24-5.54,10.84c-1.9,3.61-3.84,7.17-6.01,10.82c-1.85,3.11-5.88,4.13-8.99,2.28c-3.08-1.83-4.11-5.79-2.34-8.89
		l0.03-0.06c1.87-3.26,3.7-6.76,5.47-10.27c1.78-3.51,3.51-7.06,5.2-10.63c0.6-1.27,1.18-2.55,1.77-3.83
		c-1.08-0.12-2.16-0.26-3.25-0.46c-2.91-0.52-5.89-1.35-8.61-2.72c-0.4-0.2-0.57-0.7-0.36-1.1c0.09-0.18,0.23-0.31,0.4-0.38
		l0.07-0.03c1.4-0.61,2.69-1.01,4-1.58c0.65-0.28,1.29-0.49,1.93-0.75c0.64-0.28,1.28-0.54,1.92-0.79c2.54-1.01,5.05-2.01,7.57-2.96
		c0.5-0.16,0.98-0.39,1.48-0.55c0.96-2.16,1.93-4.32,2.87-6.5c6.29-14.55,12.13-29.3,17.36-44.22c5.24-14.91,9.86-30,13.4-45.21
		c1.77-7.6,3.22-15.23,4.19-22.83c0.96-7.59,1.44-15.17,1.02-22.42v-0.07c-0.05-0.81,0.03-1.6,0.2-2.35c0-1.32,0-2.63,0.01-3.93
		v-0.25c0.02-3.4,2.79-6.14,6.18-6.12c2.7,0.01,4.99,1.77,5.8,4.2c0.11,0.33,0.21,0.67,0.32,1c2.2,1.36,3.72,3.73,3.88,6.5
		c0,0.03,0.01,0.11,0.01,0.15c0.14,3.55,0.1,7.05-0.07,10.5c0.28,1.89,0.53,3.78,0.71,5.66c0.2,1.98,0.41,3.96,0.56,5.94
		c0.15,1.97,0.25,3.95,0.37,5.92c0.25,3.95,0.42,7.88,0.59,11.83c0.64,15.75,0.59,31.45,0.56,47.13
		c-0.11,12.58-0.06,25.16,0.05,37.72c5.95-2.08,11.88-4.24,17.73-6.54c5.06-1.97,10.06-4.06,14.98-6.24c2.46-1.1,4.87-2.25,7.2-3.47
		c1.14-0.62,2.3-1.23,3.36-1.87c1.07-0.64,2.05-1.3,2.63-1.81c2.94-2.54,7.37-2.22,9.91,0.72c1.91,2.21,2.2,5.28,0.97,7.74
		c-0.01,0.05-0.03,0.09-0.04,0.14c-0.24,0.8-0.47,1.57-0.72,2.31c-0.51,1.49-1.04,2.92-1.57,4.35c-1.09,2.83-2.2,5.58-3.31,8.32
		c-2.23,5.46-4.45,10.83-6.43,16.14c-0.98,2.65-1.9,5.28-2.66,7.86c-0.78,2.56-1.38,5.11-1.67,7.31c-0.08,0.66-0.13,1.29-0.14,1.85
		c0.27-0.11,0.56-0.23,0.87-0.38c0.92-0.43,1.93-1,2.95-1.64c2.06-1.31,4.22-2.88,6.34-4.59c4.27-3.42,8.51-7.27,12.73-11.21
		l12.8-12.06c2.19-2.01,4.35-4.07,6.65-6.06c1.92-1.69,3.88-3.36,6.03-5c1.38-1.92,3.75-3.05,6.26-2.72
		c3.63,0.48,6.2,3.79,5.72,7.42c-0.13,1.05-0.29,1.85-0.44,2.66l-0.48,2.31l-1,4.42l-1.99,8.62c-0.56,2.49-1.1,4.96-1.59,7.41
		c2.52-2.78,5.05-5.62,7.58-8.46c3.96-4.43,7.93-8.87,12.14-13.28c2.12-2.21,4.26-4.39,6.74-6.6c0.63-0.55,1.28-1.11,2.01-1.68
		c0.73-0.57,1.51-1.15,2.61-1.8c0.58-0.32,1.19-0.67,2.28-1.04c0.53-0.17,1.24-0.37,2.27-0.43l0.39-0.01l0.47,0.01
		c0.31,0.02,0.63,0.05,1.03,0.13c0.19,0.04,0.37,0.08,0.56,0.13c0.2,0.06,0.41,0.12,0.62,0.2c0.4,0.14,0.82,0.34,1.23,0.58
		c0.81,0.47,1.53,1.12,2.05,1.78c0.27,0.34,0.45,0.62,0.65,0.96c0.18,0.32,0.3,0.57,0.43,0.87c0.44,1.09,0.54,1.86,0.61,2.5
		c0.1,1.21,0.01,1.96-0.08,2.63l-1.31,8.81c-0.41,2.89-0.78,5.77-1.11,8.63c-0.23,2-0.42,3.98-0.59,5.95
		c3.08-3.93,6.18-7.89,9.35-11.83c3.77-4.67,7.6-9.31,11.78-13.86c2.11-2.28,4.28-4.52,6.85-6.75c1.32-1.11,2.67-2.22,4.61-3.34
		c1.02-0.54,2.13-1.16,4.13-1.53c1.02-0.15,2.35-0.24,3.96,0.24c1.6,0.45,3.14,1.62,3.99,2.74c0.87,1.12,1.28,2.14,1.55,2.97
		c0.07,0.21,0.12,0.4,0.17,0.61l0.09,0.39l0.15,0.7c0.18,0.92,0.32,1.78,0.42,2.62c0.22,1.68,0.34,3.27,0.44,4.83
		c0.19,3.12,0.27,6.12,0.35,9.09c0.16,5.91,0.18,11.74,0.75,17.14c0.14,1.34,0.34,2.64,0.58,3.84c0.25,1.19,0.57,2.31,0.91,3.06
		c0.14,0.33,0.28,0.57,0.36,0.7c0.43-0.02,0.86-0.04,1.29-0.1c2.45-0.23,4.84-0.7,7.25-1.55l3.8-1.34c1.34-0.47,2.74-1,4.35-1.37
		c1.18-0.27,2.35,0.46,2.62,1.64c0.12,0.54,0.04,1.08-0.21,1.53l-0.02,0.03c-0.76,1.41-1.71,2.68-2.81,3.88
		c-1.09,1.21-2.37,2.31-3.79,3.26c-2.83,1.89-6.14,3.29-9.53,4.01c-0.85,0.2-1.7,0.32-2.55,0.45c-1.38,0.18-3.19,0.01-4.74-0.65
		c-1.58-0.64-2.83-1.67-3.71-2.66c-0.9-1.01-1.52-2-2.02-2.95c-0.99-1.9-1.53-3.63-2-5.31c-0.45-1.67-0.78-3.3-1.04-4.88
		c-0.53-3.18-0.85-6.26-1.09-9.3c-0.24-3.04-0.42-6.03-0.55-8.98c-0.15-2.94-0.29-5.86-0.53-8.64c-0.01-0.17-0.03-0.33-0.05-0.49
		c-1.52,1.44-3.05,3.05-4.55,4.71c-3.78,4.21-7.44,8.74-11.05,13.33c-3.62,4.6-7.17,9.29-10.79,14.01
		c-1.84,2.37-3.64,4.71-5.72,7.18l-0.41,0.47l-0.48,0.54c-0.22,0.23-0.4,0.44-0.67,0.69l-0.39,0.36l-0.47,0.4
		c-0.29,0.25-0.76,0.57-1.19,0.84c-0.28,0.16-0.57,0.32-0.87,0.46c-0.28,0.14-0.75,0.31-1.14,0.43c-0.85,0.26-2.03,0.45-3.35,0.28
		c-1.34-0.17-2.66-0.77-3.55-1.44c-0.43-0.32-0.88-0.72-1.13-1.01c-0.29-0.31-0.59-0.68-0.75-0.94c-0.42-0.61-0.65-1.07-0.88-1.55
		c-0.38-0.87-0.58-1.56-0.74-2.19c-0.3-1.24-0.42-2.21-0.51-3.16c-0.31-3.69-0.15-6.77,0.02-9.91c0.19-3.11,0.48-6.15,0.81-9.16
		c0.14-1.25,0.29-2.49,0.44-3.72c-3.59,3.81-7.15,7.78-10.72,11.77c-3.94,4.41-7.86,8.85-12.04,13.31
		c-1.06,1.12-2.13,2.23-3.29,3.37c-0.58,0.57-1.18,1.14-1.85,1.74c-0.34,0.3-0.69,0.61-1.09,0.93l-0.32,0.25l-0.43,0.32
		c-0.31,0.22-0.64,0.44-1.07,0.68c-0.41,0.23-0.91,0.48-1.58,0.72c-0.66,0.23-1.5,0.46-2.66,0.49c-1.14,0.04-2.63-0.26-3.86-0.95
		c-1.24-0.68-2.1-1.59-2.63-2.34c-1.06-1.54-1.28-2.55-1.51-3.39c-0.19-0.82-0.27-1.48-0.33-2.08c-0.1-1.19-0.08-2.16-0.05-3.08
		c0.04-0.92,0.11-1.78,0.2-2.62c0.36-3.33,0.91-6.36,1.5-9.38c0.12-0.6,0.25-1.19,0.38-1.79c-2.43,2.69-4.9,5.37-7.45,8.01
		c-4.22,4.35-8.6,8.64-13.51,12.7c-2.47,2.02-5.05,4.02-8,5.86c-1.48,0.92-3.05,1.82-4.82,2.64c-1.76,0.82-3.76,1.57-6.21,2.04
		c-1.25,0.22-2.59,0.37-4.14,0.3c-1.53-0.07-3.22-0.38-4.89-1.03c-1.69-0.66-3.21-1.65-4.5-2.86c-1.3-1.21-2.38-2.7-3.08-4.14
		c-0.72-1.45-1.14-2.86-1.42-4.18c-0.24-1.29-0.36-2.51-0.39-3.63c-0.04-2.25,0.22-4.19,0.54-6.02c0.67-3.64,1.74-6.79,2.88-9.83
		c1.17-3.02,2.45-5.89,3.81-8.67c2.62-5.37,5.52-10.44,8.5-15.38c-0.49,0.21-0.98,0.43-1.47,0.64c-5.14,2.24-10.3,4.32-15.46,6.38
		c-7.41,2.93-14.84,5.76-22.34,8.44c0.16,14.1,0.36,28.2,0.5,42.29l0.22,16.34c6.48-0.66,12.96-1.28,19.44-1.85
		c31.71-2.86,63.48-4.82,95.28-6.14c15.91-0.64,31.82-1.08,47.77-1.34c7.97-0.1,15.96-0.12,23.97-0.08
		c4.01,0.03,8.02,0.08,12.06,0.18c2.01,0.03,4.07,0.13,6.1,0.19l1.53,0.06l0.78,0.04c0.26,0.02,0.52,0,0.78,0.15
		c0.51,0.27,0.99,1.02,1.43,2.35c0.43,1.46,0.83,3.14,1.11,6.35C419.16,267.08,419.1,267.92,418.93,268.72z"/>
	<path d="M191.57,143.85c-2.33,7.26-4.84,14.44-7.48,21.56c-5.16,13.95-10.84,27.65-16.89,41.19c8.57-2.36,17.13-4.98,25.66-7.73
		c-0.09-14.21-0.3-28.4-0.85-42.59C191.87,152.14,191.72,148,191.57,143.85z"/>
</g>
</svg>
